/* XPM */
static char *load_0[] = {
"8 24 3 1",
"# c grey30",
"  c white",
"! c #22242b",
"!!!!!!!!",
"!!!!!!!!",
"!!!!!!!!",
"!!!!!!!!",
"!!!!!!!!",
"!!!!!!!!",
"!!!!!!!!",
"!!!!!!!!",
"!!!!!!!!",
"!!!!!!!!",
"!!!!!!!!",
"!!!!!!!!",
"!!!!!!!!",
"!!!!!!!!",
"!!!!!!!!",
"!!!!!!!!",
"!!!!!!!!",
"!!!!!!!!",
"########",
"!!!!!!!!",
"!!!!!!!!",
"!!!!!!!!",
"!!!!!!!!",
"!!!!!!!!"
};
