/* XPM */
static char *load_7[] = {
"8 24 3 1",
"! c #22242b",
"  c white",
"# c grey30",
"!!!!!!!!",
"!!!!!!!!",
"!!!!!!!!",
"!!!!!!!!",
"########",
"########",
"########",
"########",
"########",
"########",
"########",
"########",
"########",
"########",
"########",
"########",
"########",
"########",
"########",
"!!!!!!!!",
"!!!!!!!!",
"!!!!!!!!",
"!!!!!!!!",
"!!!!!!!!"
};
